<svg width="32" height="32" viewBox="0 0 32 32" fill="none" xmlns="http://www.w3.org/2000/svg">
  <!-- Background -->
  <rect width="32" height="32" rx="6" fill="url(#gradient)"/>
  
  <!-- Neural network pattern -->
  <circle cx="8" cy="10" r="1.5" fill="white" opacity="0.9"/>
  <circle cx="16" cy="6" r="2" fill="white"/>
  <circle cx="24" cy="10" r="1.5" fill="white" opacity="0.9"/>
  <circle cx="12" cy="16" r="1.5" fill="white" opacity="0.8"/>
  <circle cx="20" cy="16" r="1.5" fill="white" opacity="0.8"/>
  <circle cx="8" cy="22" r="1.5" fill="white" opacity="0.9"/>
  <circle cx="16" cy="26" r="2" fill="white"/>
  <circle cx="24" cy="22" r="1.5" fill="white" opacity="0.9"/>
  
  <!-- Connections -->
  <path d="M8 10 L16 6 M16 6 L24 10 M8 10 L12 16 M24 10 L20 16 M12 16 L16 26 M20 16 L16 26 M8 22 L16 26 M24 22 L16 26" 
        stroke="white" stroke-width="0.8" opacity="0.5"/>
  
  <!-- Letter "E" in center -->
  <text x="16" y="18" font-family="system-ui" font-size="8" font-weight="bold" fill="white" text-anchor="middle" dominant-baseline="middle">E</text>
  
  <defs>
    <linearGradient id="gradient" x1="0%" y1="0%" x2="100%" y2="100%">
      <stop offset="0%" style="stop-color:#6366f1"/>
      <stop offset="100%" style="stop-color:#8b5cf6"/>
    </linearGradient>
  </defs>
</svg>