<svg width="120" height="40" viewBox="0 0 120 40" fill="none" xmlns="http://www.w3.org/2000/svg">
  <!-- Background circle for AI theme -->
  <circle cx="20" cy="20" r="18" fill="url(#gradient1)" opacity="0.1"/>
  
  <!-- Neural network nodes -->
  <circle cx="10" cy="12" r="2" fill="url(#gradient1)"/>
  <circle cx="20" cy="8" r="2.5" fill="url(#gradient1)"/>
  <circle cx="30" cy="12" r="2" fill="url(#gradient1)"/>
  <circle cx="15" cy="20" r="2" fill="url(#gradient1)"/>
  <circle cx="25" cy="20" r="2" fill="url(#gradient1)"/>
  <circle cx="10" cy="28" r="2" fill="url(#gradient1)"/>
  <circle cx="20" cy="32" r="2.5" fill="url(#gradient1)"/>
  <circle cx="30" cy="28" r="2" fill="url(#gradient1)"/>
  
  <!-- Neural network connections -->
  <path d="M10 12 L20 8 M20 8 L30 12 M10 12 L15 20 M30 12 L25 20 M15 20 L20 32 M25 20 L20 32 M10 28 L20 32 M30 28 L20 32" stroke="url(#gradient1)" stroke-width="1" opacity="0.6"/>
  
  <!-- Text "ErfanMhp" -->
  <text x="45" y="15" font-family="'Inter', system-ui, -apple-system, sans-serif" font-size="14" font-weight="700" fill="url(#gradient1)">ErfanMhp</text>
  
  <!-- Subtitle "AI Specialist" -->
  <text x="45" y="28" font-family="'Inter', system-ui, -apple-system, sans-serif" font-size="9" font-weight="500" fill="#6366f1" opacity="0.8">AI Specialist</text>
  
  <!-- Gradients -->
  <defs>
    <linearGradient id="gradient1" x1="0%" y1="0%" x2="100%" y2="100%">
      <stop offset="0%" style="stop-color:#6366f1"/>
      <stop offset="100%" style="stop-color:#8b5cf6"/>
    </linearGradient>
  </defs>
</svg>